<?xml version="1.0" standalone="no"?><!DOCTYPE svg PUBLIC "-//W3C//DTD SVG 1.1//EN" "http://www.w3.org/Graphics/SVG/1.1/DTD/svg11.dtd"><svg class="icon" width="200px" height="200.00px" viewBox="0 0 1024 1024" version="1.1" xmlns="http://www.w3.org/2000/svg"><path d="M921.6 217.6c42.24 0 76.8 34.56 76.8 76.8v627.2c0 42.24-34.56 76.8-76.8 76.8H102.4c-42.24 0-76.8-34.56-76.8-76.8V294.4c0-42.24 34.56-76.8 76.8-76.8h819.2m0-25.6H102.4c-56.32 0-102.4 46.08-102.4 102.4v627.2c0 56.32 46.08 102.4 102.4 102.4h819.2c56.32 0 102.4-46.08 102.4-102.4V294.4c0-56.32-46.08-102.4-102.4-102.4zM299.52 192C323.84 96 409.6 25.6 512 25.6s188.16 70.4 212.48 166.4h26.88C727.04 81.92 628.48 0 512 0S296.96 81.92 273.92 192h25.6z" fill="#999999" /><path d="M707.84 437.76c0-19.2-16.64-35.84-35.84-35.84l-200.96-1.28-256 256L453.12 896l256-256-1.28-202.24z m-175.36 140.8c-15.36-15.36-15.36-39.68 0-53.76s39.68-15.36 53.76 0 15.36 39.68 0 53.76-39.68 15.36-53.76 0z" fill="#999999" /><path d="M481.28 427.52l190.72 1.28c5.12 0 10.24 5.12 10.24 10.24l1.28 190.72-230.4 230.4-202.24-202.24 230.4-230.4m78.08 188.16c16.64 0 33.28-6.4 44.8-19.2 11.52-11.52 19.2-28.16 19.2-44.8 0-16.64-6.4-33.28-19.2-44.8-11.52-11.52-28.16-19.2-44.8-19.2-16.64 0-33.28 6.4-44.8 19.2-24.32 24.32-24.32 65.28 0 90.88 11.52 11.52 28.16 17.92 44.8 17.92m-88.32-215.04l-256 256L453.12 896l256-256-1.28-200.96c0-19.2-16.64-35.84-35.84-35.84l-200.96-2.56z m88.32 189.44c-10.24 0-19.2-3.84-26.88-11.52-15.36-15.36-15.36-39.68 0-53.76 7.68-7.68 17.92-11.52 26.88-11.52 10.24 0 19.2 3.84 26.88 11.52 15.36 15.36 15.36 39.68 0 53.76-7.68 7.68-16.64 11.52-26.88 11.52z" fill="#666666" /></svg>