<?xml version="1.0" standalone="no"?><!DOCTYPE svg PUBLIC "-//W3C//DTD SVG 1.1//EN" "http://www.w3.org/Graphics/SVG/1.1/DTD/svg11.dtd"><svg class="icon" width="200px" height="167.87px" viewBox="0 0 1220 1024" version="1.1" xmlns="http://www.w3.org/2000/svg"><path fill="#333333" d="M277.969189 176.761905a17.895619 17.895619 0 0 1-12.775619-5.36381L126.95357 32.085333a19.065905 19.065905 0 0 1 0-26.428952 17.895619 17.895619 0 0 1 25.746285 0l137.996191 139.068952a19.065905 19.065905 0 0 1 0 26.428953 17.944381 17.944381 0 0 1-13.019429 5.607619z m230.936381 0a17.895619 17.895619 0 0 1-12.77562-5.36381L357.88995 32.085333a19.065905 19.065905 0 0 1-0.243809-26.477714 17.895619 17.895619 0 0 1 25.746286 0l138.24 139.117714a19.065905 19.065905 0 0 1 0 26.428953 17.895619 17.895619 0 0 1-12.970667 5.607619z m230.93638 0a17.895619 17.895619 0 0 1-12.775619-5.36381L588.826331 32.085333a19.065905 19.065905 0 0 1 0-26.428952 17.846857 17.846857 0 0 1 25.746286 0l138.24 139.361524a19.065905 19.065905 0 0 1 0 26.428952 17.944381 17.944381 0 0 1-13.019428 5.607619z m230.936381 0a17.895619 17.895619 0 0 1-12.775619-5.36381L819.762712 32.085333a19.065905 19.065905 0 0 1 0-26.428952 17.895619 17.895619 0 0 1 25.502477-0.292571l138.24 139.361523a19.065905 19.065905 0 0 1 0 26.428953 17.895619 17.895619 0 0 1-13.019429 5.607619z m230.936381 0a17.895619 17.895619 0 0 1-12.775619-5.36381L1050.699093 32.085333a19.065905 19.065905 0 0 1 0-26.428952 17.846857 17.846857 0 0 1 25.746286 0l138.24 139.361524a19.065905 19.065905 0 0 1 0 26.428952 17.944381 17.944381 0 0 1-13.019429 5.607619z m-268.970666 124.001524a17.944381 17.944381 0 0 1-13.019429-5.607619 19.065905 19.065905 0 0 1 0-26.428953l138.24-139.361524a17.895619 17.895619 0 0 1 25.746286 0 19.065905 19.065905 0 0 1 0 26.428953l-138.191238 139.605333a17.895619 17.895619 0 0 1-12.775619 5.36381z m-230.936381 0a17.944381 17.944381 0 0 1-12.970667-5.607619 19.065905 19.065905 0 0 1 0-26.428953l138.24-139.361524a17.895619 17.895619 0 0 1 25.746286 0 19.065905 19.065905 0 0 1-0.24381 26.428953l-137.99619 139.605333a17.895619 17.895619 0 0 1-12.775619 5.36381z m-220.891429 0a17.895619 17.895619 0 0 1-13.019428-5.607619 19.065905 19.065905 0 0 1 0-26.428953l138.24-139.361524a17.846857 17.846857 0 0 1 25.746285 0 19.065905 19.065905 0 0 1 0 26.428953l-138.191238 139.605333a17.895619 17.895619 0 0 1-12.775619 5.36381z m-237.226666 0a17.895619 17.895619 0 0 1-13.019429-5.607619 19.065905 19.065905 0 0 1 0-26.428953l138.532571-139.361524a17.895619 17.895619 0 0 1 25.746286 0 19.065905 19.065905 0 0 1 0 26.428953l-138.483809 139.605333a17.895619 17.895619 0 0 1-12.775619 5.36381z m-224.646096 0a17.944381 17.944381 0 0 1-12.970666-5.607619 19.065905 19.065905 0 0 1 0.243809-26.428953l138.24-139.361524a17.895619 17.895619 0 0 1 25.746286 0 19.065905 19.065905 0 0 1-0.24381 26.672762L31.819093 295.399619a17.895619 17.895619 0 0 1-12.775619 5.36381z m913.65181 231.960381a17.944381 17.944381 0 0 1-13.019429-5.60762 19.065905 19.065905 0 0 1 0-26.428952l138.24-139.361524a17.895619 17.895619 0 0 1 25.746286 0.24381 19.065905 19.065905 0 0 1 0 26.428952l-138.24 139.312762a17.895619 17.895619 0 0 1-12.775619 5.36381z m-230.936381 0a17.944381 17.944381 0 0 1-12.970667-5.60762 19.065905 19.065905 0 0 1 0-26.428952l138.24-139.361524a17.895619 17.895619 0 0 1 25.746286 0.24381 19.065905 19.065905 0 0 1-0.24381 26.428952l-138.191238 139.312762a17.944381 17.944381 0 0 1-12.775619 5.36381z m-220.891429 0a17.944381 17.944381 0 0 1-13.019428-5.60762 19.065905 19.065905 0 0 1 0-26.428952l138.24-139.361524a17.895619 17.895619 0 0 1 25.746285 0.24381 19.065905 19.065905 0 0 1 0 26.428952l-138.24 139.312762a17.944381 17.944381 0 0 1-12.775619 5.36381z m-237.226666 0a17.944381 17.944381 0 0 1-13.019429-5.60762 19.065905 19.065905 0 0 1 0-26.428952l138.581333-139.312762a17.895619 17.895619 0 0 1 25.746286 0.24381 19.065905 19.065905 0 0 1 0 26.428952l-138.483809 139.361524a17.895619 17.895619 0 0 1-12.775619 5.363809z m-224.646096 0a17.993143 17.993143 0 0 1-13.019428-5.60762 19.065905 19.065905 0 0 1 0.243809-26.428952l138.337524-139.312762a17.895619 17.895619 0 0 1 25.746286 0.24381 19.065905 19.065905 0 0 1-0.24381 26.428952L31.819093 527.408762a17.895619 17.895619 0 0 1-12.775619 5.363809z m913.65181 241.42019a17.944381 17.944381 0 0 1-13.019429-5.607619 19.065905 19.065905 0 0 1 0-26.428952l138.24-139.361524a17.895619 17.895619 0 0 1 25.746286 0.243809 19.065905 19.065905 0 0 1 0 26.428953l-138.24 139.361523a17.895619 17.895619 0 0 1-12.775619 5.36381z m-230.936381 0a17.944381 17.944381 0 0 1-12.970667-5.607619 19.065905 19.065905 0 0 1 0-26.428952l138.24-139.361524a17.895619 17.895619 0 0 1 25.746286 0.243809 19.065905 19.065905 0 0 1-0.24381 26.428953l-138.191238 139.361523a17.944381 17.944381 0 0 1-12.775619 5.36381z m-220.891429 0a17.895619 17.895619 0 0 1-13.019428-5.607619 19.065905 19.065905 0 0 1 0-26.428952l138.24-139.361524a17.895619 17.895619 0 0 1 25.746286 0.243809 19.065905 19.065905 0 0 1 0 26.428953l-138.24 139.361523a17.944381 17.944381 0 0 1-12.77562 5.36381z m-237.226666 0a17.895619 17.895619 0 0 1-13.019429-5.607619 19.065905 19.065905 0 0 1 0-26.428952l138.24-139.361524a17.895619 17.895619 0 0 1 25.746286 0.243809 19.065905 19.065905 0 0 1 0 26.428953l-138.093714 139.361523a17.895619 17.895619 0 0 1-12.775619 5.36381z m-224.646096 0a17.944381 17.944381 0 0 1-13.019428-5.607619 19.065905 19.065905 0 0 1 0.243809-26.428952l138.24-139.361524a17.895619 17.895619 0 0 1 25.746286 0.243809 19.065905 19.065905 0 0 1 0 26.428953L31.819093 768.78019a17.895619 17.895619 0 0 1-12.775619 5.36381zM932.744046 1024a17.944381 17.944381 0 0 1-13.019429-5.607619 19.065905 19.065905 0 0 1 0-26.428952l138.24-139.361524a17.895619 17.895619 0 0 1 25.746286 0.243809 19.065905 19.065905 0 0 1 0 26.428953l-138.191238 139.361523a17.944381 17.944381 0 0 1-12.775619 5.36381z m-230.936381 0a17.944381 17.944381 0 0 1-12.970667-5.607619 19.065905 19.065905 0 0 1 0-26.428952l138.24-139.361524a17.895619 17.895619 0 0 1 25.746286 0.243809 19.065905 19.065905 0 0 1-0.24381 26.428953l-137.99619 139.361523a17.944381 17.944381 0 0 1-12.775619 5.36381z m-220.891429 0a17.944381 17.944381 0 0 1-13.019428-5.607619 19.065905 19.065905 0 0 1 0-26.428952l138.24-139.361524a17.895619 17.895619 0 0 1 25.746285 0.243809 19.065905 19.065905 0 0 1 0 26.428953l-138.191238 139.361523a17.944381 17.944381 0 0 1-12.775619 5.36381z m-237.177905 0a17.944381 17.944381 0 0 1-13.019428-5.607619 19.065905 19.065905 0 0 1 0-26.428952l138.24-139.361524a17.895619 17.895619 0 0 1 25.746286 0.243809 19.065905 19.065905 0 0 1 0 26.428953L256.465189 1018.63619a17.944381 17.944381 0 0 1-12.775619 5.36381zM19.092236 1024a17.944381 17.944381 0 0 1-13.019428-5.607619 19.065905 19.065905 0 0 1 0.243809-26.428952l138.24-139.361524a17.895619 17.895619 0 0 1 25.746286 0.243809 19.065905 19.065905 0 0 1 0 26.428953L31.819093 1018.63619a17.944381 17.944381 0 0 1-12.726857 5.36381zM277.969189 418.328381a17.895619 17.895619 0 0 1-12.775619-5.36381L126.95357 273.603048a19.065905 19.065905 0 0 1 0-26.428953 17.895619 17.895619 0 0 1 25.746285 0l137.996191 139.117715a19.065905 19.065905 0 0 1 0 26.428952 17.944381 17.944381 0 0 1-13.019429 5.607619z m230.936381 0a17.895619 17.895619 0 0 1-12.77562-5.36381L357.88995 273.603048a19.065905 19.065905 0 0 1-0.243809-26.428953 17.895619 17.895619 0 0 1 25.746286 0l138.24 139.117715a19.065905 19.065905 0 0 1 0 26.428952 17.944381 17.944381 0 0 1-12.970667 5.607619z m230.93638 0a17.895619 17.895619 0 0 1-12.775619-5.36381l-138.24-139.361523a19.065905 19.065905 0 0 1 0-26.428953 17.846857 17.846857 0 0 1 25.746286 0l138.24 139.361524a19.065905 19.065905 0 0 1 0 26.428952 17.944381 17.944381 0 0 1-13.019428 5.607619z m230.936381 0a17.895619 17.895619 0 0 1-12.775619-5.36381l-138.24-139.361523a19.065905 19.065905 0 0 1 0-26.428953 17.895619 17.895619 0 0 1 25.746286 0l138.24 139.361524a19.065905 19.065905 0 0 1 0 26.428952 17.944381 17.944381 0 0 1-13.019428 5.607619z m230.936381 0a17.895619 17.895619 0 0 1-12.775619-5.36381L1050.699093 273.603048a19.065905 19.065905 0 0 1 0-26.428953 17.895619 17.895619 0 0 1 25.746286 0l138.24 139.361524a19.065905 19.065905 0 0 1 0 26.428952 17.944381 17.944381 0 0 1-13.019429 5.607619zM277.969189 659.894857a17.944381 17.944381 0 0 1-12.775619-5.363809l-138.24-139.361524a19.065905 19.065905 0 0 1 0-26.428953 17.895619 17.895619 0 0 1 25.746285-0.243809l138.24 139.361524a19.065905 19.065905 0 0 1 0 26.428952 17.944381 17.944381 0 0 1-13.019428 5.607619z m230.936381 0a17.944381 17.944381 0 0 1-12.77562-5.363809l-138.24-139.361524a19.065905 19.065905 0 0 1-0.243809-26.428953 17.895619 17.895619 0 0 1 25.746286-0.243809l138.24 139.361524a19.065905 19.065905 0 0 1 0 26.428952 17.895619 17.895619 0 0 1-12.970667 5.607619z m230.93638 0a17.895619 17.895619 0 0 1-12.775619-5.363809l-138.24-139.361524a19.065905 19.065905 0 0 1 0-26.428953 17.895619 17.895619 0 0 1 25.746286-0.243809l138.24 139.361524a19.065905 19.065905 0 0 1 0 26.428952 17.993143 17.993143 0 0 1-13.019428 5.607619z m230.936381 0a17.944381 17.944381 0 0 1-12.775619-5.363809l-138.24-139.361524a19.065905 19.065905 0 0 1 0-26.428953 17.895619 17.895619 0 0 1 25.746286-0.243809l138.24 139.361524a19.065905 19.065905 0 0 1 0 26.428952 17.944381 17.944381 0 0 1-13.019428 5.607619z m230.936381 0a17.895619 17.895619 0 0 1-12.775619-5.363809l-138.24-139.361524a19.065905 19.065905 0 0 1 0-26.428953 17.895619 17.895619 0 0 1 25.746286-0.243809l138.24 139.361524a19.065905 19.065905 0 0 1 0 26.428952 17.944381 17.944381 0 0 1-13.019429 5.607619zM277.969189 901.412571a17.944381 17.944381 0 0 1-12.775619-5.363809l-138.24-139.312762a19.065905 19.065905 0 0 1 0-26.428952 17.895619 17.895619 0 0 1 25.746285-0.24381l138.24 139.361524a19.065905 19.065905 0 0 1 0 26.428952 17.944381 17.944381 0 0 1-13.019428 5.607619z m230.936381 0a17.944381 17.944381 0 0 1-12.77562-5.363809l-138.24-139.312762a19.065905 19.065905 0 0 1-0.243809-26.428952 17.895619 17.895619 0 0 1 25.746286-0.24381l138.24 139.361524a19.065905 19.065905 0 0 1 0 26.428952 17.895619 17.895619 0 0 1-12.970667 5.607619z m230.93638 0a17.895619 17.895619 0 0 1-12.775619-5.363809l-138.24-139.312762a19.065905 19.065905 0 0 1 0-26.428952 17.846857 17.846857 0 0 1 25.746286-0.24381l138.24 139.361524a19.065905 19.065905 0 0 1 0 26.428952 17.944381 17.944381 0 0 1-13.019428 5.607619z m230.936381 0a17.944381 17.944381 0 0 1-12.775619-5.363809l-138.24-139.312762a19.065905 19.065905 0 0 1 0-26.428952 17.895619 17.895619 0 0 1 25.746286-0.24381l138.24 139.361524a19.065905 19.065905 0 0 1 0 26.428952 17.944381 17.944381 0 0 1-13.019428 5.607619z m230.936381 0a17.895619 17.895619 0 0 1-12.775619-5.363809l-138.24-139.312762a19.065905 19.065905 0 0 1 0-26.428952 17.895619 17.895619 0 0 1 25.746286-0.24381l138.24 139.361524a19.065905 19.065905 0 0 1 0 26.428952 17.944381 17.944381 0 0 1-13.019429 5.607619z m0 0" /></svg>