<?xml version="1.0" standalone="no"?><!DOCTYPE svg PUBLIC "-//W3C//DTD SVG 1.1//EN" "http://www.w3.org/Graphics/SVG/1.1/DTD/svg11.dtd"><svg class="icon" width="200px" height="200.00px" viewBox="0 0 1024 1024" version="1.1" xmlns="http://www.w3.org/2000/svg"><path fill="#333333" d="M762.24 519.04V183.68a94.08 94.08 0 0 0-94.08-94.08h-10.24v68.48h10.24a25.6 25.6 0 0 1 25.6 25.6v333.44h-9.6l-16.64 3.84-25.6 7.68-16 6.4-23.68 12.8-14.08 8.96a239.36 239.36 0 0 0-22.4 19.2l-10.24 8.96A238.72 238.72 0 0 0 528 618.24a236.16 236.16 0 0 0-19.84 36.48c0 4.48 0 8.96-4.48 13.44a232.32 232.32 0 0 0-8.96 28.16v33.92H199.04a25.6 25.6 0 0 1-25.6-25.6V183.68a25.6 25.6 0 0 1 25.6-25.6h10.24V89.6h-10.24a94.08 94.08 0 0 0-94.08 94.08V707.2a94.08 94.08 0 0 0 94.08 94.08h294.4A236.8 236.8 0 1 0 762.88 518.4z m-37.76 401.28A168.32 168.32 0 0 1 560 718.72v-8.96a167.04 167.04 0 0 1 7.04-22.4c0-3.2 3.2-6.4 5.12-9.6a168.96 168.96 0 0 1 10.24-19.2l6.4-7.68a169.6 169.6 0 0 1 14.08-17.28l7.68-6.4a168.96 168.96 0 0 1 17.28-14.08l12.16-5.76a166.4 166.4 0 0 1 19.2-10.24l11.52-3.84a164.48 164.48 0 0 1 19.84-6.4H704a165.76 165.76 0 0 1 20.48 0 167.68 167.68 0 0 1 0 336zM606.08 336.64a34.56 34.56 0 0 0-34.56-34.56h-275.2a34.56 34.56 0 1 0 0 69.12h275.84a34.56 34.56 0 0 0 33.92-34.56z m-309.76 118.4a34.56 34.56 0 1 0 0 69.12H473.6a34.56 34.56 0 0 0 0-69.12zM295.68 192a34.56 34.56 0 0 0 34.56-34.56V89.6a34.56 34.56 0 0 0-69.12 0v68.48A34.56 34.56 0 0 0 295.68 192z m86.4-102.4h103.68v69.12H382.08zM571.52 192a34.56 34.56 0 0 0 34.56-34.56V88.96a34.56 34.56 0 0 0-69.12 0v69.76A34.56 34.56 0 0 0 571.52 192z m220.8 525.44h-33.28v-31.36a34.56 34.56 0 0 0-69.12 0v64a34.56 34.56 0 0 0 34.56 34.56h67.84a34.56 34.56 0 0 0 0-69.12z" /></svg>