<?xml version="1.0" standalone="no"?><!DOCTYPE svg PUBLIC "-//W3C//DTD SVG 1.1//EN" "http://www.w3.org/Graphics/SVG/1.1/DTD/svg11.dtd"><svg class="icon" width="200px" height="200.00px" viewBox="0 0 1024 1024" version="1.1" xmlns="http://www.w3.org/2000/svg"><path fill="#333333" d="M770.56 716.8c-53.467429 88.502857-151.990857 143.140571-258.633143 143.36-106.715429-0.219429-205.238857-54.857143-258.706286-143.36a39.570286 39.570286 0 0 1-1.316571-41.910857 43.008 43.008 0 0 1 37.888-21.065143c15.725714 0.219429 29.988571 8.704 37.229714 22.016 38.253714 63.268571 108.690286 102.253714 184.905143 102.4 76.214857-0.146286 146.505143-39.131429 184.758857-102.4a43.008 43.008 0 0 1 37.010286-20.699429 43.008 43.008 0 0 1 37.010286 20.48 39.570286 39.570286 0 0 1-0.146286 41.179429m117.248-512H119.076571c-46.811429 0-84.845714 36.571429-84.918857 81.554286v655.945143c0 45.056 38.034286 81.700571 84.992 81.700571h768.658286c46.957714 0 84.918857-36.571429 84.992-81.627429V286.427429c0-45.056-38.034286-81.554286-84.992-81.627429M503.442286 81.92c70.582857 0 128 55.149714 128 122.88H716.8C716.8 91.867429 621.056 0 503.442286 0 385.828571 0 290.157714 91.867429 290.157714 204.8h85.284572c0-67.730286 57.417143-122.88 128-122.88"  /></svg>