<?xml version="1.0" standalone="no"?><!DOCTYPE svg PUBLIC "-//W3C//DTD SVG 1.1//EN" "http://www.w3.org/Graphics/SVG/1.1/DTD/svg11.dtd"><svg class="icon" width="200px" height="157.18px" viewBox="0 0 1303 1024" version="1.1" xmlns="http://www.w3.org/2000/svg"><path fill="#333333" d="M1058.16033416 116.9955608H181.21164758a64.6475495 64.6475495 0 0 0-64.57563892 64.50372911v629.93607906c0 35.59570313 28.9799358 64.57563892 64.57563892 64.5756397h877.02059639a64.57563892 64.57563892 0 0 0 64.64755028-64.50372912V181.5712005a64.57563892 64.57563892 0 0 0-64.64755028-64.5756397z m16.82705909 694.51171875a16.82705988 16.82705988 0 0 1-16.82705909 16.6832387H181.21164758a16.82705988 16.82705988 0 0 1-16.75514928-16.6832387V181.5712005C164.38458772 172.29474397 171.86328125 164.74414062 181.139737 164.74414062h877.02059716c9.27645575 0 16.82705988 7.55060334 16.82705909 16.68323871v629.93607983zM519.47869353 520.84499304a145.97833772 145.97833772 0 0 0 58.17560335-115.91974474 146.4817118 146.4817118 0 0 0-146.26598005-146.33789063A146.4817118 146.4817118 0 0 0 285.12233679 404.85333772c0 47.31711634 23.0832743 89.16903387 58.24751391 115.91974474a221.26864325 221.26864325 0 0 0-133.10635673 202.64382117 23.9462005 23.9462005 0 0 0 47.8204904 0 173.16051129 173.16051129 0 0 1 168.70205988-172.80095918c1.58203125 0 3.02024133 0.43146272 4.60227258 0.4314635s3.02024133-0.43146272 4.60227259-0.4314635A173.16051129 173.16051129 0 0 1 604.76455988 723.41690363a23.9462005 23.9462005 0 0 0 47.82048962 0c0-90.60724397-54.93963103-168.55823871-133.10635597-202.64382117z m-83.48810411-17.97762763c-1.58203125-0.07191058-3.02024133-0.5033733-4.60227259-0.50337408s-3.02024133 0.43146272-4.60227258 0.50337408a98.37357983 98.37357983 0 0 1 4.60227258-196.53142791c54.2924358 0 98.51740022 44.22496442 98.51740022 98.51740022 0 52.71040455-41.85191754 95.49715887-93.91512763 98.01402769z m543.35582378-200.6303272H659.56036897a23.87428992 23.87428992 0 1 0 0 47.82049042H979.41832379a23.9462005 23.9462005 0 0 0 0-47.82049043z m0 147.41654859H659.56036897a23.80237933 23.80237933 0 0 0-23.87428915 23.8742899v0.07191058c0 13.1596233 10.64275603 23.9462005 23.87428915 23.94619972H979.41832379a23.9462005 23.9462005 0 0 0 0-47.82048962z m0 147.48845838H707.38085938a23.87428992 23.87428992 0 0 0 0.07191058 47.8204904h271.82173266a23.9462005 23.9462005 0 0 0 0-47.8204904z"  /></svg>