<?xml version="1.0" standalone="no"?><!DOCTYPE svg PUBLIC "-//W3C//DTD SVG 1.1//EN" "http://www.w3.org/Graphics/SVG/1.1/DTD/svg11.dtd"><svg class="icon" width="200px" height="200.00px" viewBox="0 0 1024 1024" version="1.1" xmlns="http://www.w3.org/2000/svg"><path fill="#333333" d="M879.616 515.072v-1.024c-1.536-5.632-3.584-11.776-6.144-16.896-6.144-11.776-14.336-22.528-23.552-32.256-8.704-9.216-19.456-16.896-30.72-22.528h-1.024c-5.12-2.56-10.752-4.096-16.384-5.632-8.704-2.56-17.408-3.584-26.112-3.072h-0.512c-18.432 1.024-35.84 7.68-49.152 19.968l-0.512 0.512-10.752 10.752-9.728 10.24-2.56 2.56-20.48 21.504-76.288 82.944-27.136 30.208-24.576 26.624-18.944 21.504-8.192 9.216c-5.12 5.12-9.216 11.264-12.8 17.408-2.56 5.12-5.12 10.24-7.168 15.36-2.56 5.632-4.096 11.776-5.632 17.408l-5.12 19.968-5.632 23.04c-1.536 6.656-3.072 13.824-3.584 20.48-2.56 17.92 2.56 36.352 13.824 50.176 1.536 2.048 3.584 3.584 5.12 5.12 11.776 10.24 27.648 15.36 43.52 14.336l10.24-0.512 18.944-5.12 22.016-7.68 21.504-8.192 17.408-8.192c6.656-3.584 12.8-7.68 18.432-12.288l9.216-8.704 10.752-11.776 17.92-20.48 23.552-26.112 26.624-30.208 72.192-79.36 23.04-25.6 19.456-20.992v-0.512c6.144-7.68 10.752-15.872 13.824-25.088 3.584-8.704 5.12-18.432 5.12-28.16 1.536-6.656 1.024-12.8 0-18.944z m-204.8 184.832l-24.064 26.624-17.408 19.968-7.68 8.192-7.168 6.656c-1.536 1.536-3.584 3.072-5.632 4.096l-13.312 6.144-18.432 7.168-19.456 6.656-8.704 3.072c0.512-3.584 1.024-6.656 2.048-9.728l4.608-19.968 4.608-18.432c1.024-3.072 2.048-6.656 3.584-9.728v-1.024c1.024-2.048 2.048-4.608 3.072-6.656 1.536-2.56 3.072-4.608 5.12-6.656l1.024-1.024 7.168-12.288 17.408-19.456 24.576-26.624 27.136-30.208 61.44-68.608 47.104 43.008-87.04 98.816z m140.8-158.72l-0.512 3.072-6.656 7.168-47.616-42.496L768 501.76c1.024-1.024 2.56-1.536 3.584-2.56h5.632l2.048-0.512c1.536 0 3.072-0.512 4.096-0.512l6.144 2.048c4.608 1.536 9.216 4.096 12.8 7.168 4.608 4.608 8.192 9.728 11.264 15.36 0.512 1.024 1.024 2.56 1.024 3.584 0 1.536 0.512 3.584 0 5.12v2.048l0.512 2.048c1.024 2.56 1.024 4.096 0.512 5.632z m-383.488 250.368H286.72c-19.456 0-35.328-15.872-34.816-35.328v-491.52c-0.512-19.456 15.36-35.328 34.816-35.328h483.84c9.216 0 18.432 3.584 25.088 10.24 6.656 6.656 10.24 15.36 10.24 24.576v126.976c-2.048 17.92 10.752 34.304 28.672 36.352 1.536 0 3.072 0.512 4.608 0.512 16.896 0 31.232-12.288 33.28-28.672 0.512-2.56 0.512-5.632 0-8.192V265.216c0.512-55.808-45.056-101.888-101.888-102.912H286.208c-27.648 0.512-53.248 11.264-72.704 30.72-18.944 19.456-29.696 45.056-29.184 72.192v490.496c-0.512 55.808 45.056 101.888 101.888 102.912h145.408c18.944 0 34.304-14.848 34.304-33.28 0-18.944-15.36-33.792-33.792-33.792z m-72.704-246.272c-18.944 0-34.304 14.848-34.304 33.792 0 18.432 15.36 33.28 34.304 33.28h128.512c18.944 0 34.304-14.848 34.304-33.28s-15.36-33.792-34.304-33.792H359.424z m360.96-219.648c2.048-17.92-11.264-34.304-29.696-36.352H359.424c-9.216 0-17.408 3.584-24.064 9.728-6.656 6.144-9.728 14.848-9.728 23.552 0 18.432 15.36 33.28 34.304 33.28h327.168c17.408 0 31.744-13.312 33.28-30.208zM619.52 449.024c0-18.432-15.36-33.28-34.304-33.28h-225.28c-9.216 0-17.408 3.584-24.064 9.728-6.656 6.144-9.728 14.848-9.728 23.552 0 18.432 15.36 33.28 34.304 33.28h225.792c17.92 0.512 33.28-14.848 33.28-33.28z" /></svg>